<?xml version="1.0" encoding="utf-8"?>
<!-- Generator: Adobe Illustrator 16.0.0, SVG Export Plug-In . SVG Version: 6.00 Build 0)  -->
<!DOCTYPE svg PUBLIC "-//W3C//DTD SVG 1.1//EN" "http://www.w3.org/Graphics/SVG/1.1/DTD/svg11.dtd">
<svg version="1.1" id="Layer_1" xmlns="http://www.w3.org/2000/svg" xmlns:xlink="http://www.w3.org/1999/xlink" x="0px" y="0px"
	 width="550.472px" height="551.973px" viewBox="-7.909 -2.659 550.472 551.973"
	 enable-background="new -7.909 -2.659 550.472 551.973" xml:space="preserve">
<g class="logo" enable-background="new">
	<polyline points="507.301,151.961 477.747,169.026 405.653,423.527 335.036,251.421 305.478,268.486 306.165,510.896 
		326.26,499.292 325.668,289.816 326.256,289.479 396.297,458.859 415.197,447.947 486.711,196.841 487.299,196.5 
		487.895,405.977 507.991,394.372 507.301,151.961 			"/>

	<path d="M192.621,266.939l-19.504-11.335l0.458,161.28c0.03,10.832-0.526,19.781-1.651,26.859
		c-1.126,7.079-3.12,12.26-5.965,15.58c-2.863,3.309-6.784,4.678-11.742,4.099c-4.959-0.559-11.275-3.055-18.931-7.504
		c-10.137-5.892-17.836-12.646-23.097-20.219c-5.278-7.585-9.075-15.264-11.388-23.016c-2.314-7.751-3.667-15.271-4.064-22.581
		c-0.415-7.301-0.714-13.553-0.917-18.754l-19.504-11.334c0.03,10.421,0.811,20.907,2.38,31.55
		c1.551,10.607,4.435,20.842,8.667,30.705c4.234,9.846,10.082,19.217,17.561,28.081c7.462,8.873,17.042,16.699,28.702,23.477
		c11.096,6.449,20.403,10.423,27.956,11.948c7.552,1.521,13.653,0.742,18.319-2.277c4.686-3.032,8.051-8.354,10.133-15.982
		c2.08-7.605,3.104-17.523,3.069-29.683L192.621,266.939"/>

	<polygon class="logo" points="288.417,4.719 3.173,169.404 187.853,276.729 192.638,268.494 192.638,257.534 41.08,169.458 288.385,26.676 
		496.596,147.676 481.29,156.514 477.576,169.625 482.327,177.854 534.502,147.73 "/>
	<polygon class="logo" points="257.929,538.745 257.265,304.571 237.366,293.007 238.051,534.599 251.538,542.436 "/>
	<polygon class="logo" points="251.538,542.436 262.74,535.968 262.053,293.557 241.956,305.16 242.615,537.251 "/>
</g>

</svg>
